# xmcd CD database file
#
# Track frame offsets:
#	150
#	14687
#	29132
#	43727
#	59385
#	73423
#	89308
#	104757
#	121538
#	135546
#	150477
#	165292
#
# Disc length: 2397 seconds
#
# Revision: 2
# Processed by: cddbd v1.5.2PL0 Copyright (c) Steve Scherf et al.
# Submitted via: CDex 1.70beta3
#
DISCID=a3095b0c
DTITLE=KARA - KARA BEST 2007-2010
DYEAR=2010
DGENRE=Pop
TTITLE0=Mr.
TTITLE1=LUPIN
TTITLE2=Honey
TTITLE3=Pretty Girl
TTITLE4=Wanna
TTITLE5=Rock U
TTITLE6=Umbrella
TTITLE7=私は… (ing)
TTITLE8=Tasty Love
TTITLE9=AHA
TTITLE10=Break It
TTITLE11=Good Day
EXTD=YEAR: 2010
EXTT0=
EXTT1=
EXTT2=
EXTT3=
EXTT4=
EXTT5=
EXTT6=
EXTT7=
EXTT8=
EXTT9=
EXTT10=
EXTT11=
PLAYORDER=
